<?xml version="1.0" standalone="no"?>
<!DOCTYPE svg PUBLIC "-//W3C//DTD SVG 20010904//EN"
 "http://www.w3.org/TR/2001/REC-SVG-20010904/DTD/svg10.dtd">
<svg version="1.0" xmlns="http://www.w3.org/2000/svg"
 width="700.000000pt" height="700.000000pt" viewBox="0 0 700.000000 700.000000"
 preserveAspectRatio="xMidYMid meet">
<metadata>
Created by potrace 1.14, written by Peter Selinger 2001-2017
</metadata>
<g transform="translate(0.000000,700.000000) scale(0.100000,-0.100000)"
fill="#000000" stroke="none">
<path d="M3464 6328 c-21 -18 -47 -42 -59 -53 -92 -88 -245 -219 -249 -214 -2
2 -13 22 -24 44 -42 83 -147 134 -232 113 -32 -8 -510 -163 -800 -259 -63 -20
-255 -83 -426 -139 -214 -69 -324 -110 -352 -129 -62 -46 -99 -137 -81 -203 4
-15 3 -30 -2 -33 -5 -4 -55 -9 -111 -12 -57 -3 -106 -8 -110 -12 -4 -3 -25
-64 -47 -136 -22 -71 -77 -236 -122 -365 -45 -129 -83 -245 -86 -257 -4 -18 1
-23 33 -32 228 -62 285 -89 396 -187 85 -75 160 -204 188 -324 30 -125 16
-332 -34 -495 -13 -44 -40 -132 -59 -195 -19 -63 -40 -149 -47 -190 -6 -41
-14 -88 -17 -105 -11 -65 -9 -275 4 -360 l13 -90 -36 -140 c-19 -77 -42 -151
-51 -165 -21 -34 -65 -80 -76 -80 -4 0 -30 -9 -56 -20 -101 -44 -114 -165 -24
-226 32 -21 42 -22 319 -22 l286 0 46 -44 c26 -23 49 -45 52 -48 3 -3 32 -27
65 -53 33 -26 65 -52 72 -57 16 -13 153 -102 178 -116 140 -76 185 -98 276
-138 59 -25 162 -66 230 -90 153 -54 205 -77 294 -127 133 -76 233 -149 333
-243 105 -100 181 -198 268 -347 42 -71 79 -131 83 -133 3 -2 40 53 81 122 41
69 98 156 126 192 131 170 327 330 529 433 96 48 119 58 285 117 323 114 624
289 815 472 49 47 66 58 95 58 19 1 89 2 155 3 96 2 126 6 148 20 39 25 58 60
59 105 1 74 -49 125 -138 139 -18 3 -34 8 -34 11 0 3 17 42 39 86 94 197 131
372 126 596 -5 197 -21 286 -95 520 -21 69 -46 151 -54 182 l-15 58 84 337 84
338 46 41 c65 58 170 110 292 144 58 16 107 31 110 34 6 6 -2 32 -104 331 -49
143 -102 302 -117 352 -31 107 -20 100 -170 108 -55 3 -101 6 -102 8 -2 2 3
23 10 47 29 99 -9 196 -99 255 -17 11 -279 91 -545 165 -105 29 -465 133 -750
216 -306 89 -349 94 -424 50 -26 -15 -58 -46 -73 -69 -15 -23 -28 -44 -29 -46
-6 -8 -82 58 -281 242 l-51 48 -38 -33z m157 -187 c25 -25 161 -145 177 -157
12 -9 13 -17 2 -50 -22 -69 -12 -74 -196 93 -50 46 -98 83 -105 83 -8 0 -39
-24 -70 -53 -80 -75 -128 -118 -174 -154 l-40 -33 -12 33 c-6 17 -12 40 -12
50 -1 21 -5 16 104 112 77 67 128 113 182 163 l25 23 51 -47 c29 -26 59 -55
68 -63z m-596 4 c38 -22 75 -73 75 -103 0 -10 -196 -75 -1185 -397 -214 -70
-439 -143 -498 -163 -123 -40 -127 -39 -127 36 0 69 38 127 100 151 14 5 138
46 275 91 335 108 624 203 950 310 149 48 279 90 290 93 46 11 81 6 120 -18z
m1450 -100 c220 -63 418 -120 440 -126 22 -6 51 -15 65 -20 14 -4 153 -45 310
-89 157 -45 299 -86 315 -92 66 -24 105 -81 105 -150 0 -82 103 -103 -905 188
-143 42 -267 77 -275 79 -12 3 -398 114 -597 172 -29 9 -53 20 -53 25 0 21 42
88 63 100 38 22 81 35 107 32 14 -2 205 -55 425 -119z m-1323 -142 c6 -27 11
-50 11 -53 -2 -6 -164 -60 -181 -60 -11 0 -12 3 -3 14 14 17 0 60 -26 75 -21
11 -25 9 87 45 41 14 81 25 87 25 7 1 18 -20 25 -46z m803 11 c74 -21 92 -29
81 -38 -24 -20 -34 -49 -25 -73 5 -13 5 -23 1 -23 -17 0 -176 50 -183 58 -6 7
18 102 27 102 2 0 47 -12 99 -26z m-1082 -78 c-4 -27 -1 -37 20 -52 l24 -19
-81 -26 c-44 -15 -153 -50 -241 -79 -88 -29 -192 -62 -232 -75 l-72 -22 8 21
c10 26 -2 61 -25 74 -14 8 52 33 287 110 167 55 307 101 311 101 4 1 4 -14 1
-33z m1492 -41 c127 -36 261 -75 299 -86 l68 -20 -23 -25 c-20 -22 -22 -28
-12 -55 10 -26 10 -29 -5 -25 -9 3 -114 32 -232 66 -118 34 -252 73 -297 86
l-82 25 21 21 c15 15 19 28 15 54 -4 23 -2 32 6 29 7 -2 116 -34 242 -70z
m556 -159 c63 -18 166 -48 229 -66 63 -18 150 -44 194 -57 76 -24 78 -25 56
-40 -18 -13 -21 -22 -17 -53 5 -37 4 -38 -22 -30 -14 4 -145 42 -291 84 -146
43 -273 80 -283 82 -16 5 -16 7 3 31 23 29 26 53 8 71 -18 18 -2 15 123 -22z
m-1838 15 c28 -11 38 -37 26 -68 -8 -21 -20 -26 -202 -83 -25 -8 -29 -6 -39
18 -7 15 -13 29 -14 31 -3 4 -131 -37 -156 -51 -14 -7 -15 -13 -7 -35 7 -20 6
-28 -3 -34 -18 -11 -28 2 -35 42 -2 19 -6 38 -6 43 -1 5 90 40 203 77 113 37
206 68 207 68 1 1 13 -3 26 -8z m-890 -35 c-4 -28 -1 -37 16 -48 27 -16 27
-24 -1 -33 -13 -4 -25 -8 -28 -9 -3 -1 -106 -35 -230 -75 -124 -41 -249 -82
-278 -92 l-53 -18 6 33 c6 28 3 36 -19 54 l-26 20 302 100 c167 55 306 101
310 101 4 1 4 -14 1 -33z m1970 -31 l198 -58 -6 -31 c-12 -56 -16 -66 -32 -66
-12 0 -14 7 -10 35 6 34 5 35 -46 51 -115 35 -118 35 -129 3 -5 -16 -13 -29
-16 -29 -17 0 -216 60 -223 67 -21 22 -13 72 14 83 27 11 10 15 250 -55z m445
-131 c34 -14 41 -40 23 -86 -6 -13 -24 -75 -41 -138 -17 -63 -40 -145 -51
-181 l-19 -66 -70 2 c-38 1 -72 3 -74 6 -2 2 12 67 31 144 19 77 36 147 38
155 1 8 8 33 14 55 9 36 18 78 20 97 1 4 8 14 17 23 18 17 51 14 112 -11z
m-2099 2 c11 -13 124 -398 133 -450 3 -18 -4 -20 -63 -22 -36 -1 -70 1 -76 4
-8 6 -81 220 -133 394 -11 35 4 53 60 72 57 19 65 19 79 2z m3069 -8 c43 -12
81 -25 86 -29 9 -8 0 -76 -13 -97 -6 -10 -21 -8 -72 7 -35 11 -79 22 -98 26
-29 6 -32 9 -20 19 27 19 38 48 28 73 -11 29 -7 29 89 1z m-2413 -8 c15 -16
17 -26 9 -48 -8 -23 -23 -32 -103 -59 -141 -48 -149 -49 -157 -19 -8 32 -19
32 -106 4 l-68 -22 2 -36 c4 -51 -22 -46 -37 8 -10 31 -10 44 -2 50 18 12 400
139 423 141 11 0 29 -8 39 -19z m760 -4 c34 -9 278 -80 340 -98 22 -7 43 -16
46 -21 8 -11 -14 -88 -24 -88 -4 1 -11 1 -16 1 -6 0 -7 15 -4 34 5 34 4 35
-38 46 -24 6 -57 15 -73 20 -42 14 -56 12 -56 -8 0 -39 -18 -40 -129 -8 -59
17 -115 37 -125 45 -20 17 -21 49 -1 71 16 18 30 19 80 6z m-2409 -41 c-5 -19
0 -32 17 -49 l23 -23 -94 -32 c-52 -17 -96 -30 -97 -29 -7 9 -37 99 -34 102 9
7 155 54 173 55 15 1 17 -4 12 -24z m3309 0 c37 -11 54 -22 58 -36 5 -18 -90
-322 -111 -359 -12 -19 -142 -22 -149 -4 -2 7 10 58 27 114 17 57 33 110 35
119 9 41 48 157 57 169 13 15 19 15 83 -3z m-2558 -17 c14 -18 133 -379 128
-387 -2 -4 -37 -7 -77 -6 l-73 0 -62 166 c-35 93 -60 175 -57 186 4 13 22 25
52 36 59 19 77 20 89 5z m-977 -55 c8 -23 12 -44 9 -47 -2 -3 -35 -6 -72 -7
-37 -1 -71 -7 -75 -13 -5 -6 -41 -108 -80 -227 -39 -119 -74 -223 -78 -233 -5
-12 3 -20 32 -32 271 -110 455 -307 520 -556 34 -134 34 -143 -25 -378 -28
-113 -53 -214 -56 -225 -2 -11 -16 -65 -30 -120 -14 -55 -27 -109 -29 -120 -2
-11 -7 -27 -10 -35 -3 -8 -8 -26 -10 -40 -19 -91 -83 -332 -87 -324 -9 16 2
171 16 245 12 57 15 76 21 104 3 17 20 75 38 130 81 242 105 374 101 545 -3
136 -24 229 -71 323 -39 76 -61 105 -140 183 -86 85 -187 146 -310 186 l-90
29 107 322 108 322 38 5 c21 3 65 5 98 5 l60 0 15 -42z m4629 31 c2 -1 52
-147 111 -324 l107 -320 -71 -21 c-75 -22 -140 -51 -202 -89 l-36 -23 7 24
c19 62 72 113 132 128 39 10 91 57 94 84 2 19 2 50 1 75 -2 29 -50 79 -84 87
-15 4 -31 12 -36 18 -5 7 -26 66 -47 132 -21 66 -42 125 -46 131 -5 6 -39 12
-76 13 -79 3 -86 6 -77 34 23 73 14 69 121 61 54 -3 100 -8 102 -10z m-774
-52 c39 -11 121 -35 184 -53 145 -41 179 -72 130 -117 -22 -21 -26 -21 -149
13 -79 22 -83 25 -71 58 6 14 7 28 2 31 -7 5 -156 46 -165 46 -2 0 -9 -14 -16
-31 -8 -19 -18 -28 -27 -25 -8 4 -19 6 -25 6 -10 0 -6 28 12 76 11 29 7 29
125 -4z m-3146 -44 c18 -43 18 -43 -3 -55 -23 -12 -46 -1 -46 23 0 25 -21 25
-101 -1 -63 -21 -80 -31 -76 -44 2 -9 6 -23 8 -31 3 -10 -19 -22 -75 -42 -105
-38 -131 -41 -150 -22 -23 23 -20 61 7 78 12 8 81 33 152 56 72 23 155 51 185
61 30 10 61 18 68 19 7 0 21 -19 31 -42z m1230 -17 c21 -21 19 -52 -4 -71 -7
-5 -66 -28 -131 -49 l-118 -39 -14 29 c-8 16 -18 29 -21 29 -4 0 -38 -11 -77
-24 l-69 -23 3 -37 c4 -46 -21 -50 -37 -5 -23 65 -27 62 197 137 114 39 217
70 230 71 12 1 31 -8 41 -18z m747 -37 c87 -25 187 -54 222 -64 35 -9 65 -20
68 -22 5 -6 -11 -86 -19 -94 -2 -2 -11 -2 -20 2 -12 4 -14 11 -6 31 5 13 9 26
9 28 0 6 -130 45 -151 45 -12 0 -21 -9 -25 -25 -3 -14 -10 -25 -15 -25 -27 0
-237 65 -251 78 -25 21 -22 58 4 76 12 9 23 16 23 16 1 0 73 -21 161 -46z
m1169 -119 c238 -67 239 -68 253 -78 26 -20 8 -24 -110 -23 l-123 1 0 28 c1
23 -5 29 -35 37 -19 5 -57 16 -83 24 l-48 14 -6 -29 c-5 -25 -10 -30 -32 -27
-21 2 -26 8 -24 28 2 40 21 80 35 75 7 -2 85 -24 173 -50z m-3070 -21 c15 -39
15 -48 4 -55 -24 -15 -37 -10 -51 18 -7 15 -17 27 -23 26 -39 -6 -155 -50
-155 -59 0 -7 -30 -11 -85 -11 -47 0 -85 1 -85 3 0 2 213 75 224 76 3 0 33 11
68 23 35 13 68 23 74 24 6 1 19 -20 29 -45z m1219 -20 c20 -20 20 -48 0 -68
-31 -31 -61 -31 -221 -1 -10 2 -29 4 -43 5 -28 2 192 79 227 80 12 0 29 -7 37
-16z m516 -8 c54 -13 170 -50 166 -53 -4 -4 -27 -8 -96 -17 -25 -4 -63 -11
-85 -16 -54 -12 -90 9 -80 48 8 34 34 55 60 47 11 -3 27 -7 35 -9z m-768 -100
c128 -12 357 -75 460 -127 l36 -18 16 23 c16 25 82 54 182 80 187 48 215 49
1251 50 l982 0 25 -23 c33 -31 41 -72 22 -109 -14 -27 -37 -41 -95 -57 -33
-10 -92 -73 -114 -120 -12 -29 -160 -599 -202 -785 -2 -8 -76 -303 -164 -655
-103 -411 -159 -651 -155 -669 21 -115 137 -197 371 -261 45 -13 67 -25 80
-44 30 -46 12 -111 -37 -131 -30 -12 -1754 -10 -1800 3 -14 4 -50 11 -80 17
-78 15 -208 56 -285 90 l-67 30 -28 -29 c-21 -20 -57 -36 -137 -59 -208 -61
-203 -61 -1286 -61 l-988 -1 -24 24 c-13 13 -27 35 -30 49 -8 31 19 85 48 97
12 4 37 14 55 21 41 15 87 59 111 108 10 20 105 383 210 806 105 424 196 786
201 805 14 49 90 354 94 377 2 10 9 36 15 58 26 98 -22 182 -144 250 -54 30
-160 71 -208 81 -73 14 -107 43 -107 94 0 45 22 77 60 87 36 9 1634 8 1732 -1z
m2604 -1556 c33 -121 32 -117 48 -233 28 -212 5 -417 -69 -613 -31 -81 -85
-184 -97 -184 -8 0 -67 27 -76 35 -1 1 13 33 32 71 58 116 90 209 111 324 12
63 14 293 4 365 -6 39 -22 116 -36 173 -25 102 -25 103 -8 175 10 39 20 76 23
81 7 12 34 -66 68 -194z m-3751 -1362 c205 -151 473 -287 700 -358 88 -27 249
-101 347 -158 172 -99 404 -303 503 -441 28 -39 52 -70 55 -70 3 -1 23 25 45
56 48 68 206 231 293 301 150 122 322 219 512 290 256 96 310 118 425 175 65
33 174 97 242 143 122 82 135 87 222 85 l44 -1 -74 -61 c-207 -169 -433 -290
-759 -405 -401 -142 -729 -397 -902 -700 -23 -40 -45 -71 -49 -68 -4 2 -25 32
-45 67 -100 166 -269 344 -444 469 -118 84 -298 174 -455 228 -66 23 -134 48
-152 56 -17 8 -34 14 -37 14 -9 0 -226 107 -285 141 -125 71 -350 234 -351
254 0 6 27 9 67 7 51 -2 75 -8 98 -24z"/>
<path d="M1384 4851 c-3 -3 31 -17 74 -32 160 -54 275 -135 323 -229 42 -84
38 -109 -150 -855 -94 -374 -173 -690 -176 -702 -2 -13 -6 -26 -9 -31 -3 -5
-7 -19 -9 -33 -19 -101 -143 -574 -162 -615 -29 -66 -87 -129 -144 -160 l-46
-24 985 3 c542 2 996 6 1010 10 14 4 50 11 80 17 77 14 200 51 200 61 0 4 -28
26 -62 50 -165 110 -324 276 -422 438 l-37 61 -282 1 c-155 0 -326 0 -380 -1
-53 -1 -101 1 -106 4 -4 3 0 41 11 83 10 43 21 85 23 93 2 8 33 134 70 280 37
146 68 272 70 280 17 76 164 653 168 657 8 7 523 5 582 -3 294 -39 549 -294
591 -590 12 -85 5 -210 -17 -281 -9 -27 -6 -42 14 -85 80 -173 276 -306 474
-322 l42 -3 24 56 c26 58 73 201 81 247 3 15 8 48 12 73 4 25 8 55 10 66 7 32
6 277 0 305 -3 14 -8 43 -11 64 -8 60 -43 191 -69 260 -141 373 -473 684 -856
800 -194 58 -202 59 -1088 60 -448 1 -816 -1 -818 -3z"/>
<path d="M4067 4854 c-1 -1 -36 -4 -77 -7 -98 -7 -176 -22 -278 -54 l-83 -25
33 -24 c137 -97 177 -130 255 -209 112 -115 127 -132 195 -236 l56 -85 381 -1
c210 0 383 -2 386 -4 2 -3 -10 -58 -26 -124 -17 -66 -32 -127 -34 -135 -2 -8
-33 -134 -70 -280 -37 -146 -68 -272 -70 -280 -2 -8 -20 -80 -40 -160 -20 -80
-38 -152 -40 -160 -3 -15 -38 -155 -56 -221 l-9 -36 -297 2 c-320 3 -355 7
-473 61 -150 69 -280 198 -349 348 -53 115 -75 295 -51 411 23 111 23 106 -17
173 -96 161 -264 272 -439 289 l-62 6 -22 -49 c-67 -151 -100 -299 -107 -485
-15 -395 118 -734 396 -1009 42 -42 94 -89 116 -105 22 -17 42 -32 45 -35 13
-14 142 -90 204 -119 127 -61 249 -96 396 -116 106 -14 1704 -19 1695 -5 -3 4
-21 11 -41 15 -20 3 -48 11 -63 16 -14 6 -26 9 -26 8 0 -2 -33 15 -73 36 -136
71 -219 170 -227 271 -2 27 8 93 26 167 17 67 32 129 34 137 30 133 450 1796
461 1826 25 67 84 135 143 166 29 15 47 29 40 29 -19 2 -1830 4 -1832 3z"/>
</g>
</svg>
